<?xml version="1.0" ?><!-- Uploaded to: SVG Repo, www.svgrepo.com, Generator: SVG Repo Mixer Tools -->
<svg fill="#000000" width="800px" height="800px" viewBox="0 0 512 512" data-name="Layer 1" id="Layer_1" xmlns="http://www.w3.org/2000/svg"><title/><path d="M271.24,324.3a8,8,0,0,1-8,8H223.87a8,8,0,0,1,0-16h39.37A8,8,0,0,1,271.24,324.3Zm-86.74-8H145.13a8,8,0,0,0,0,16H184.5a8,8,0,0,0,0-16Zm157.48,0H302.61a8,8,0,0,0,0,16H342a8,8,0,0,0,0-16ZM145.21,293.24A27.76,27.76,0,1,1,173,265.48,27.8,27.8,0,0,1,145.21,293.24Zm0-16a11.76,11.76,0,1,0-11.77-11.76A11.77,11.77,0,0,0,145.21,277.24Zm224.45-31.52V285.1a8,8,0,0,1-8,8H282.92a8,8,0,0,1-8-8V245.72a8,8,0,0,1,8-8h78.74A8,8,0,0,1,369.66,245.72Zm-16,8H290.92V277.1h62.74ZM487.77,147.3V383.52a27.69,27.69,0,1,1-55.37,0V352.1H408.17a26.52,26.52,0,0,1-25.59,19.73h-278a26.49,26.49,0,0,1-26.46-26.46v-29H60.81v35.3a8,8,0,0,1-8,8H32.23a8,8,0,0,1-8-8V179a8,8,0,0,1,8-8H52.81a8,8,0,0,1,8,8v35.3H78.07V185.45A26.49,26.49,0,0,1,104.53,159h21.31V143.08h-7.33a8,8,0,0,1-8-8V108.79a8,8,0,0,1,8-8h53.24a8,8,0,0,1,8,8v26.29a8,8,0,0,1-8,8h-7.34V159h59.86V143.08h-7.33a8,8,0,0,1-8-8V108.79a8,8,0,0,1,8-8h53.23a8,8,0,0,1,8,8v26.29a8,8,0,0,1-8,8h-7.33V159H322.7V143.08h-7.34a8,8,0,0,1-8-8V108.79a8,8,0,0,1,8-8H368.6a8,8,0,0,1,8,8v26.29a8,8,0,0,1-8,8h-7.33V159h21.31a26.5,26.5,0,0,1,25.57,19.68H432.4V147.3a27.69,27.69,0,0,1,55.37,0ZM448.4,316.42h23.37V293.06H448.4Zm23.37-39.36V253.71H448.4v23.35Zm0-39.35V214.35H448.4v23.36Zm0-39.36V175H448.4v23.36ZM448.4,355.78h23.37V332.42H448.4Zm0-208.48V159h23.37V147.3a11.69,11.69,0,0,0-23.37,0Zm-125-20.22H360.6V116.79H323.36ZM338.7,159h6.57V143.08H338.7ZM224.94,127.08h37.23V116.79H224.94ZM240.27,159h6.57V143.08h-6.57ZM126.51,127.08h37.24V116.79H126.51ZM141.84,159h6.57V143.08h-6.57ZM94.07,185.45v12.9H393v-12.9A10.47,10.47,0,0,0,382.58,175h-278A10.47,10.47,0,0,0,94.07,185.45ZM44.81,308.38V187H40.23V343.68h4.58Zm33.26-8V230.26H60.81v70.12Zm315-86h-299v131a10.47,10.47,0,0,0,10.46,10.46h278A10.47,10.47,0,0,0,393,345.37ZM432.4,336.1V194.67H409V336.1Zm39.37,47.42V371.78H448.4v11.74a11.69,11.69,0,1,0,23.37,0Z"/></svg>