<svg width="34" height="35" viewBox="0 0 34 35" fill="none" xmlns="http://www.w3.org/2000/svg">
<path d="M18 27.5H10C8 27.5 7 26.5 7 24.5V16.5C7 14.5 8 13.5 10 13.5H15V24.5C15 26.5 16 27.5 18 27.5Z" stroke="#DCDCDC" stroke-width="1.5" stroke-miterlimit="10" stroke-linecap="round" stroke-linejoin="round"/>
<path d="M15.11 9.5C15.03 9.8 15 10.13 15 10.5V13.5H10V11.5C10 10.4 10.9 9.5 12 9.5H15.11Z" stroke="#DCDCDC" stroke-width="1.5" stroke-miterlimit="10" stroke-linecap="round" stroke-linejoin="round"/>
<path d="M19 13.5V18.5" stroke="#DCDCDC" stroke-width="1.5" stroke-miterlimit="10" stroke-linecap="round" stroke-linejoin="round"/>
<path d="M23 13.5V18.5" stroke="#DCDCDC" stroke-width="1.5" stroke-miterlimit="10" stroke-linecap="round" stroke-linejoin="round"/>
<path d="M22 22.5H20C19.45 22.5 19 22.95 19 23.5V27.5H23V23.5C23 22.95 22.55 22.5 22 22.5Z" stroke="#DCDCDC" stroke-width="1.5" stroke-miterlimit="10" stroke-linecap="round" stroke-linejoin="round"/>
<path d="M11 18.5V22.5" stroke="#DCDCDC" stroke-width="1.5" stroke-miterlimit="10" stroke-linecap="round" stroke-linejoin="round"/>
<path d="M15 24.5V10.5C15 8.5 16 7.5 18 7.5H24C26 7.5 27 8.5 27 10.5V24.5C27 26.5 26 27.5 24 27.5H18C16 27.5 15 26.5 15 24.5Z" stroke="#DCDCDC" stroke-width="1.5" stroke-miterlimit="10" stroke-linecap="round" stroke-linejoin="round"/>
</svg>
