<svg width="15" height="12" viewBox="0 0 15 12" fill="none" xmlns="http://www.w3.org/2000/svg">
<path d="M14.2991 2.14931C14.2955 1.0078 13.4074 0.0669222 12.2736 0.00339221C11.1398 -0.060133 10.1532 0.775706 10.0234 1.90975L0.238318 1.90975C0.106699 1.90975 0 2.01701 0 2.14931V10.7736C0 10.9059 0.106699 11.0132 0.238318 11.0132H13.1075C13.2391 11.0132 13.3458 10.9059 13.3458 10.7736V3.94078C13.9411 3.54097 14.2987 2.86897 14.2991 2.14931ZM12.1542 0.472367C13.0755 0.472367 13.8224 1.22316 13.8224 2.14931C13.8224 3.07547 13.0755 3.82626 12.1542 3.82626C11.2329 3.82626 10.486 3.07547 10.486 2.14931C10.487 1.2236 11.2333 0.473422 12.1542 0.472367ZM4.70535 6.46147L0.476636 10.2401V2.68282L4.70535 6.46147ZM5.06283 6.78201L6.19698 7.79561C6.46846 8.03602 6.87543 8.03602 7.14691 7.79561L8.28083 6.78273L12.4807 10.5341H0.865093L5.06283 6.78201ZM6.83091 7.43626C6.73997 7.51651 6.60392 7.51651 6.51299 7.43626L0.865094 2.38888H10.0234C10.0884 2.96818 10.3843 3.49624 10.8435 3.85238L6.83091 7.43626ZM12.8692 10.2401L8.64069 6.46147L11.271 4.11159C11.7743 4.34377 12.3481 4.3682 12.8692 4.17962L12.8692 10.2401Z" fill="#FF7A00"/>
</svg>
