<svg width="16" height="13" viewBox="0 0 16 13" fill="none" xmlns="http://www.w3.org/2000/svg">
<path d="M13.1606 1.69162H10.0327V1.5426C10.0327 0.967683 9.56499 0.5 8.99007 0.5H6.309C5.73408 0.5 5.26639 0.967683 5.26639 1.5426V1.69162H2.13847C1.23463 1.69162 0.5 2.42615 0.5 3.32999V10.7775C0.5 11.6813 1.23463 12.4159 2.13847 12.4159H13.1606C14.0644 12.4159 14.7991 11.6813 14.7991 10.7775V3.32999C14.7991 2.42615 14.0644 1.69162 13.1606 1.69162ZM8.84169 2.88314H6.4579V1.69162H8.84115L8.84169 2.88314ZM4.96843 4.67053C5.78947 4.67053 6.45788 5.33905 6.45788 6.16008C6.45788 6.98101 5.78947 7.64953 4.96843 7.64953C4.1474 7.64953 3.47898 6.98101 3.47898 6.16008C3.47898 5.33905 4.1474 4.67053 4.96843 4.67053ZM7.64951 10.1817C7.64951 10.4284 7.44932 10.6285 7.20266 10.6285H2.7342C2.48754 10.6285 2.28736 10.4284 2.28736 10.1817V9.88377C2.28736 8.97993 3.02199 8.2453 3.92583 8.2453H6.01104C6.91488 8.2453 7.64951 8.97993 7.64951 9.88377L7.64951 10.1817ZM12.5648 10.6285H9.28798C9.04132 10.6285 8.84114 10.4284 8.84114 10.1817C8.84114 9.93504 9.04132 9.73486 9.28798 9.73486H12.5648C12.8115 9.73486 13.0117 9.93504 13.0117 10.1817C13.0117 10.4284 12.8115 10.6285 12.5648 10.6285ZM12.5648 8.2453H9.28798C9.04132 8.2453 8.84114 8.04511 8.84114 7.79845C8.84114 7.55179 9.04132 7.3516 9.28798 7.3516H12.5648C12.8115 7.3516 13.0117 7.55179 13.0117 7.79845C13.0117 8.04511 12.8115 8.2453 12.5648 8.2453ZM12.5648 5.86216H9.28798C9.04132 5.86216 8.84114 5.66197 8.84114 5.41531C8.84114 5.16865 9.04132 4.96846 9.28798 4.96846H12.5648C12.8115 4.96846 13.0117 5.16865 13.0117 5.41531C13.0117 5.66197 12.8115 5.86216 12.5648 5.86216Z" stroke="#FF7A00"/>
</svg>
