<svg width="16" height="13" viewBox="0 0 16 13" fill="none" xmlns="http://www.w3.org/2000/svg">
<path d="M13.4819 1.91211H10.3981V1.76519C10.3981 1.19839 9.93703 0.737305 9.37023 0.737305H6.727C6.16019 0.737305 5.69911 1.19839 5.69911 1.76519V1.91211H2.61534C1.72426 1.91211 1 2.63627 1 3.52735V10.8697C1 11.7608 1.72426 12.485 2.61534 12.485H13.4819C14.373 12.485 15.0972 11.7608 15.0972 10.8697V3.52735C15.0972 2.63627 14.373 1.91211 13.4819 1.91211ZM9.22394 3.08681H6.8738V1.91211H9.2234L9.22394 3.08681ZM5.40536 4.84896C6.2148 4.84896 6.87378 5.50805 6.87378 6.31749C6.87378 7.12683 6.2148 7.78592 5.40536 7.78592C4.59591 7.78592 3.93693 7.12683 3.93693 6.31749C3.93693 5.50805 4.59591 4.84896 5.40536 4.84896ZM8.04859 10.2823C8.04859 10.5255 7.85123 10.7229 7.60805 10.7229H3.20266C2.95949 10.7229 2.76213 10.5255 2.76213 10.2823V9.98861C2.76213 9.09753 3.48639 8.37327 4.37747 8.37327H6.43325C7.32433 8.37327 8.04859 9.09753 8.04859 9.98861L8.04859 10.2823ZM12.8945 10.7229H9.66393C9.42075 10.7229 9.22339 10.5255 9.22339 10.2823C9.22339 10.0392 9.42075 9.8418 9.66393 9.8418H12.8945C13.1377 9.8418 13.335 10.0392 13.335 10.2823C13.335 10.5255 13.1377 10.7229 12.8945 10.7229ZM12.8945 8.37327H9.66393C9.42075 8.37327 9.22339 8.17591 9.22339 7.93273C9.22339 7.68956 9.42075 7.49219 9.66393 7.49219H12.8945C13.1377 7.49219 13.335 7.68956 13.335 7.93273C13.335 8.17591 13.1377 8.37327 12.8945 8.37327ZM12.8945 6.02377H9.66393C9.42075 6.02377 9.22339 5.82641 9.22339 5.58323C9.22339 5.34005 9.42075 5.14269 9.66393 5.14269H12.8945C13.1377 5.14269 13.335 5.34005 13.335 5.58323C13.335 5.82641 13.1377 6.02377 12.8945 6.02377Z" stroke="white"/>
</svg>
