<svg width="15" height="20" viewBox="0 0 15 20" fill="none" xmlns="http://www.w3.org/2000/svg">
<path d="M12.3351 19.3236H1.76215C0.791011 19.3236 0 18.5334 0 17.5615V9.33808C0 8.36616 0.791011 7.57593 1.76215 7.57593H12.3351C13.3062 7.57593 14.0972 8.36616 14.0972 9.33808V17.5615C14.0972 18.5334 13.3062 19.3236 12.3351 19.3236ZM1.76215 8.7507C1.4387 8.7507 1.17477 9.01385 1.17477 9.33808V17.5615C1.17477 17.8857 1.4387 18.1488 1.76215 18.1488H12.3351C12.6585 18.1488 12.9225 17.8857 12.9225 17.5615V9.33808C12.9225 9.01385 12.6585 8.7507 12.3351 8.7507H1.76215Z" fill="white"/>
<path d="M11.1604 8.75073C10.8361 8.75073 10.573 8.48758 10.573 8.16334V5.22642C10.573 3.28335 8.99175 1.70211 7.04869 1.70211C5.10562 1.70211 3.52438 3.28335 3.52438 5.22642V8.16334C3.52438 8.48758 3.26123 8.75073 2.93699 8.75073C2.61276 8.75073 2.34961 8.48758 2.34961 8.16334V5.22642C2.34961 2.63488 4.45714 0.527344 7.04869 0.527344C9.64023 0.527344 11.7478 2.63488 11.7478 5.22642V8.16334C11.7478 8.48758 11.4846 8.75073 11.1604 8.75073Z" fill="white"/>
<path d="M7.04878 13.8413C6.18493 13.8413 5.48242 13.1388 5.48242 12.275C5.48242 11.4111 6.18493 10.7086 7.04878 10.7086C7.91263 10.7086 8.61514 11.4111 8.61514 12.275C8.61514 13.1388 7.91263 13.8413 7.04878 13.8413ZM7.04878 11.8834C6.83341 11.8834 6.65719 12.0588 6.65719 12.275C6.65719 12.4911 6.83341 12.6666 7.04878 12.6666C7.26416 12.6666 7.44037 12.4911 7.44037 12.275C7.44037 12.0588 7.26416 11.8834 7.04878 11.8834Z" fill="white"/>
<path d="M7.04832 16.1909C6.72409 16.1909 6.46094 15.9278 6.46094 15.6036V13.4498C6.46094 13.1256 6.72409 12.8624 7.04832 12.8624C7.37256 12.8624 7.63571 13.1256 7.63571 13.4498V15.6036C7.63571 15.9278 7.37256 16.1909 7.04832 16.1909Z" fill="white"/>
</svg>
