<svg width="15" height="15" viewBox="0 0 15 15" fill="none" xmlns="http://www.w3.org/2000/svg">
<path d="M0.353272 9.82883L3.62628 9.12759C3.77429 9.09576 3.92873 9.14128 4.03569 9.24852L5.2343 10.4469C7.48185 9.31638 9.31635 7.48187 10.4468 5.23432L9.24849 4.0357C9.14125 3.92874 9.09573 3.77431 9.12757 3.62629L9.8288 0.353274C9.87293 0.147174 10.055 0 10.2659 0C10.9431 0 11.5846 0.1603 12.1721 0.476152C12.7234 0.772734 13.206 1.20225 13.5679 1.71889C13.9284 2.23331 14.1664 2.83038 14.2566 3.44505C14.3529 4.10161 14.2851 4.75565 14.055 5.38903C13.3386 7.36066 12.1721 9.19071 10.6814 10.6814C9.19068 12.1722 7.36064 13.3387 5.38902 14.055C4.94163 14.2175 4.48391 14.2991 4.02228 14.2991C3.83043 14.2991 3.63773 14.2848 3.44504 14.2566C2.83037 14.1664 2.2333 13.9285 1.71889 13.568C1.20224 13.206 0.772731 12.7234 0.476149 12.1722C0.160299 11.5846 0 10.9431 0 10.2659C0 10.055 0.147173 9.87296 0.353272 9.82883ZM12.0194 1.44298C12.0333 1.44633 12.0473 1.44996 12.061 1.45359C11.674 1.18161 11.2293 1.00285 10.7528 0.930297C10.68 0.91921 10.6112 0.967355 10.5957 1.03938L10.0681 3.50146C10.0582 3.54776 10.0724 3.59596 10.1059 3.62945L10.3879 3.91145C10.4662 3.9897 10.6 3.95019 10.6232 3.84197L11.0006 2.08138C11.0997 1.61947 11.5605 1.33099 12.0194 1.44298ZM5.60936 11.4539C5.87131 11.7158 6.27346 11.7734 6.6002 11.5986C8.72011 10.4647 10.4647 8.72014 11.5985 6.60022C11.7733 6.27347 11.7158 5.87133 11.4539 5.60937C11.39 5.54548 11.2821 5.56243 11.2414 5.64317C10.0259 8.05624 8.05619 10.026 5.64315 11.2414C5.56244 11.2821 5.54546 11.39 5.60936 11.4539ZM1.45358 12.061C1.44912 12.0451 1.44521 12.0292 1.4413 12.013C1.33099 11.5564 1.62198 11.0992 2.08138 11.0006L3.84199 10.6232C3.95018 10.6 3.98969 10.4662 3.91147 10.388L3.62947 10.106C3.59598 10.0725 3.54778 10.0583 3.50148 10.0682L1.03938 10.5958C0.967354 10.6112 0.919208 10.68 0.930294 10.7529C1.00288 11.2293 1.18161 11.674 1.45358 12.061Z" fill="#FF7A00"/>
</svg>
